<svg xmlns="http://www.w3.org/2000/svg" viewBox="0 0 871.04 998.64"><defs><style>.cls-1{fill:#fef100;}.cls-2{fill:#d91e1f;}</style></defs><title>HAISLogo</title><g id="Lager_1" data-name="Lager 1"><path class="cls-1" d="M865.16,156.17c-5.8,23.43-17.81,44.82-28.86,86.68a559.15,559.15,0,0,0-12.18,60.62c-5.45,36.55-4.33,87.24-8.53,147.08-1,14.41-2.32,29.34-4.11,44.75-10.21,88-47.44,187.84-107.62,268-1,1.38-2.13,2.78-3.28,4.23-21.94,27.52-62.75,64.41-106,100.4-37,30.78-75.74,60.9-106,84-26.33,20-46.22,34.76-53,40-6.78-5.2-26.68-19.92-53-40-30.29-23.06-69-53.18-106-84-43.27-36-84.08-72.88-106-100.4-1.15-1.45-2.24-2.85-3.28-4.23-60.18-80.11-97.41-180-107.62-268-1.79-15.4-3.11-30.34-4.11-44.75C51.25,390.7,52.37,340,46.93,303.46a559.15,559.15,0,0,0-12.18-60.62C23.7,201,11.69,179.6,5.88,156.17L92.22,33.46c200.43,115.93,343.3-25.8,343.3-25.8s142.88,141.72,343.3,25.8Z"/><path class="cls-2" d="M435.52,998.64l-3.31-2.54c-2.53-1.93-6.84-5.16-12.8-9.63-10-7.51-23.74-17.79-40.19-30.31-40.06-30.49-75.8-58.79-106.22-84.1-51.45-42.79-87.38-76.84-106.79-101.19-1.25-1.57-2.35-3-3.37-4.35-29.52-39.29-54.17-83.8-73.27-132.31-18-45.61-30.21-93.43-35.41-138.29-1.7-14.59-3-29.31-4.13-45-1.75-24.86-2.59-48.55-3.33-69.44-1.07-30.1-2-56.09-5.15-77.2a553.74,553.74,0,0,0-12.06-60c-6.07-23-12.36-39.54-17.91-54.15C7.11,178.34,3.25,168.2.6,157.48L0,155.07,90.63,26.25l4.31,2.49c44.89,26,90.5,40.82,135.56,44.14A265.92,265.92,0,0,0,336.8,59c59-20.23,94.53-54.9,94.88-55.25L435.52,0l3.83,3.8c.35.35,35.84,35,94.88,55.24a265.93,265.93,0,0,0,106.3,13.84c45.05-3.32,90.66-18.17,135.55-44.14l4.31-2.49L871,155.07l-.6,2.41c-2.66,10.73-6.51,20.87-11,32.61-5.55,14.61-11.84,31.16-17.91,54.15a553.52,553.52,0,0,0-12.06,60c-3.15,21.12-4.07,47.12-5.15,77.22-.75,20.9-1.59,44.58-3.33,69.44-1.08,15.68-2.44,30.4-4.13,45-5.21,44.86-17.45,92.68-35.41,138.29-19.1,48.5-43.75,93-73.26,132.3-1,1.36-2.12,2.78-3.37,4.35-19.41,24.36-55.34,58.4-106.8,101.2-30.41,25.31-66.15,53.6-106.22,84.1-16.44,12.52-30.16,22.79-40.18,30.3-6,4.47-10.29,7.71-12.82,9.64ZM11.78,157.25c2.48,9.27,6,18.46,10,29,5.65,14.86,12,31.7,18.26,55.24a564.44,564.44,0,0,1,12.3,61.21c3.24,21.72,4.17,48,5.26,78.42.74,20.81,1.58,44.4,3.31,69.08,1.07,15.52,2.41,30.08,4.08,44.5,5.1,43.94,17.11,90.81,34.73,135.55,18.74,47.59,42.91,91.25,71.84,129.75,1,1.27,2,2.62,3.19,4.11,18.95,23.77,54.36,57.29,105.24,99.6,30.3,25.21,65.91,53.41,105.85,83.81,16.42,12.5,30.12,22.76,40.13,30.26l9.58,7.19,9.6-7.2c10-7.49,23.7-17.76,40.11-30.25,39.95-30.4,75.56-58.6,105.85-83.81,50.88-42.32,86.29-75.83,105.24-99.61,1.19-1.49,2.23-2.84,3.19-4.11,28.92-38.5,53.09-82.16,71.83-129.75C789,585.47,801,538.59,806.07,494.66c1.68-14.43,3-29,4.08-44.5,1.73-24.68,2.57-48.27,3.31-69.07,1.08-30.43,2-56.71,5.26-78.43a564.47,564.47,0,0,1,12.3-61.2c6.21-23.55,12.61-40.38,18.26-55.24,4-10.51,7.49-19.71,10-29l-82-116.6C732.18,66,686.38,80.48,641,83.77A276.8,276.8,0,0,1,530.24,69.18c-50.61-17.44-83.86-44.42-94.72-54.09-10.86,9.68-44.1,36.65-94.72,54.09A276.8,276.8,0,0,1,230,83.77C184.66,80.48,138.87,66,93.82,40.64Z"/><path class="cls-2" d="M836.3,242.85a559.15,559.15,0,0,0-12.18,60.62c-5.45,36.55-4.33,87.24-8.53,147.08h-115V767.47c-21.94,27.52-62.75,64.41-106,100.4V450.54h-106V951.82c-26.33,20-46.22,34.76-53,40-6.78-5.2-26.68-19.92-53-40V450.54h-106V867.87c-43.27-36-84.08-72.88-106-100.4V450.54H56.65c-4.45-59.84-3.27-110.53-9-147.08a531.7,531.7,0,0,0-12.88-60.62Z"/><path class="cls-2" d="M123.46,209.81h-13V168.29h-36v41.52H61.28v-94H74.39v42.55h36V115.79h13Z"/><path class="cls-2" d="M200.11,115.79v65.16q0,14.59-8.36,22.41t-21.86,7.81q-13.3,0-21.5-7.81t-8.2-22.41V115.79h13v65.16q0,10.07,4.52,15.17t12.2,5.1q8,0,12.59-4.91t4.58-15.37V115.79Z"/><path class="cls-2" d="M216.64,209.81v-94h25.83a30.41,30.41,0,0,1,24.44,11.3q9.46,11.3,9.46,29.06v13.37q0,17.82-9.46,29.06t-24.44,11.24Zm13.11-84.08v74.13H242q9.88,0,15.59-8.47t5.71-21.93V155.94q0-13.32-5.71-21.77T242,125.73Z"/><path class="cls-2" d="M291.16,209.81v-94H317a30.41,30.41,0,0,1,24.44,11.3q9.46,11.3,9.46,29.06v13.37q0,17.82-9.46,29.06T317,209.81Zm13.11-84.08v74.13h12.27q9.88,0,15.59-8.47t5.71-21.93V155.94q0-13.32-5.71-21.77t-15.59-8.44Z"/><path class="cls-2" d="M379.63,209.81h-13v-94h13Z"/><path class="cls-2" d="M461,209.81H448l-35.64-69.93-.39.13v69.81H398.81v-94h13.11l35.65,69.74.39-.13V115.79h13Z"/><path class="cls-2" d="M538.74,196.44q-3.23,5.68-10.49,10.2t-18.57,4.52q-14.79,0-23.83-9t-9-25.57v-27.9q0-16.34,8.59-25.31t22.79-9q14.4,0,22,7.26t8.14,20.37l-.13.39h-12.4q-.32-8.84-4.62-13.46t-12.82-4.62q-8.59,0-13.56,6.18t-5,17.95v28.07q0,12,5.33,18.34t14.5,6.31q6.71,0,10.43-2.29a14.64,14.64,0,0,0,5.52-5.84V171.71H509.55v-9.49h29.19Z"/><path class="cls-2" d="M604.67,166.09H569.8v33.77h40.42v9.94H556.69v-94h53.14v9.94h-40v30.41h34.87Z"/><path class="cls-2" d="M694,186H664l-6.84,23.76h-13.3l28.93-94h12.66l28.67,94h-13.3Zm-26.93-10.4h24l-11.75-41.07h-.39Z"/><path class="cls-2" d="M738.6,209.81h-13v-94h13Z"/><path class="cls-2" d="M800.79,186.11A15.93,15.93,0,0,0,797,175.2q-3.75-4.26-13.11-7.49-13.43-4.06-20.6-10.61t-7.17-17.32a23.34,23.34,0,0,1,8-18.22q8-7.13,20.5-7.13,13,0,21,8.23a26.61,26.61,0,0,1,7.72,19.86l-.13.39H800.66q0-8.23-4.23-13.38t-11.91-5.15q-7.3,0-11.27,4.29a15.49,15.49,0,0,0-4,10.95,13.47,13.47,0,0,0,4.26,10.11q4.26,4.1,14.08,7.46,12.85,4,19.57,10.93T813.9,186q0,11.57-7.94,18.36t-20.86,6.79a34.32,34.32,0,0,1-22-7.46q-9.4-7.46-9.07-21l.13-.39h12.59q0,9.65,5.07,14.29t13.27,4.63q7.36,0,11.53-4.1T800.79,186.11Z"/><path class="cls-1" d="M177.21,351.79H136.94V400H121.82V291.64h61.87V303.1H136.94v37.23h40.28Z"/><path class="cls-1" d="M212.88,353.28V400H197.76V291.71h33.73q15.41,0,23.82,8t8.41,22.84a27.59,27.59,0,0,1-3.91,14.81,26.39,26.39,0,0,1-11.28,9.9q8.11,2.76,11.73,9.35t3.61,16.28v9.46a40.57,40.57,0,0,0,1,9.28,13.72,13.72,0,0,0,3.46,6.74V400H252.78q-2.53-2.46-3.24-7.42a74.13,74.13,0,0,1-.71-10.48V373q0-9.1-4.13-14.39a13.61,13.61,0,0,0-11.35-5.29Zm0-11.47h17.87q9.16,0,13.51-5t4.35-14.06q0-9.32-4.24-14.47t-12.88-5.15H212.88Z"/><path class="cls-1" d="M300.35,400h-15V291.64h15Z"/><path class="cls-1" d="M338.55,400h-15V291.64h15Z"/><path class="cls-1" d="M360.66,400V291.64h29.78q17.27,0,28.18,13t10.91,33.5v15.41q0,20.55-10.91,33.5t-28.18,13Zm15.11-96.93v85.47h14.15q11.39,0,18-9.77t6.59-25.28V337.93q0-15.36-6.59-25.1t-18-9.73Z"/><path class="cls-1" d="M461.69,353.28V400H446.58V291.71H480.3q15.41,0,23.82,8t8.41,22.84a27.58,27.58,0,0,1-3.91,14.81,26.38,26.38,0,0,1-11.28,9.9q8.12,2.76,11.73,9.35t3.61,16.28v9.46a40.52,40.52,0,0,0,1,9.28,13.72,13.72,0,0,0,3.46,6.74V400H501.59q-2.53-2.46-3.24-7.42a74,74,0,0,1-.71-10.48V373q0-9.1-4.13-14.39a13.61,13.61,0,0,0-11.35-5.29Zm0-11.47h17.87q9.16,0,13.51-5t4.36-14.06q0-9.32-4.24-14.47t-12.88-5.15H461.69Z"/><path class="cls-1" d="M602.1,360.8q0,19.28-10,30T565.4,401.6q-16.53,0-26.28-10.76t-9.75-30V331q0-19.21,9.79-30.08t26.24-10.87q16.68,0,26.69,10.87t10,30.08Zm-15-30q0-14.14-5.66-21.48t-16-7.33q-10.2,0-15.63,7.33t-5.44,21.48v30q0,14.29,5.47,21.67t15.6,7.37q10.42,0,16-7.33t5.62-21.7Z"/><path class="cls-1" d="M680.2,303.1H652.36V400H637.24V303.1h-27.7V291.64H680.2Z"/><path class="cls-1" d="M757.18,303.1H729.34V400H714.23V303.1h-27.7V291.64h70.65Z"/></g></svg>